<?xml version="1.0" ?>
<!-- Uploaded to: SVG Repo, www.svgrepo.com, Generator: SVG Repo Mixer Tools -->
<svg width="800px" height="800px" viewBox="0 0 64 64" xmlns="http://www.w3.org/2000/svg">
<defs>
<style>.cls-1{fill:none;stroke:#000000;stroke-linecap:round;stroke-linejoin:round;stroke-width:2px;}</style>
</defs>
<g id="e-shop">
<circle class="cls-1" cx="11.5" cy="24.5" r="2.5"/>
<path d="M55.6324,14.5A1.1324,1.1324,0,1,1,54.5,13.3676,1.1324,1.1324,0,0,1,55.6324,14.5Z"/>
<rect class="cls-1" height="22" rx="2.3073" width="45" x="3" y="39"/>
<rect class="cls-1" height="3" width="20" x="19" y="55"/>
<rect class="cls-1" height="3" width="3" x="42" y="55"/>
<rect class="cls-1" height="3" width="3" x="36" y="49"/>
<rect class="cls-1" height="3" width="3" x="30" y="49"/>
<rect class="cls-1" height="3" width="3" x="24" y="49"/>
<rect class="cls-1" height="3" width="9" x="12" y="49"/>
<rect class="cls-1" height="3" width="3" x="6" y="49"/>
<rect class="cls-1" height="3" width="10" x="6" y="55"/>
<rect class="cls-1" height="3" width="3" x="42" y="49"/>
<line class="cls-1" x1="42" x2="45" y1="43" y2="43"/>
<line class="cls-1" x1="36" x2="39" y1="43" y2="43"/>
<line class="cls-1" x1="30" x2="33" y1="43" y2="43"/>
<line class="cls-1" x1="24" x2="27" y1="43" y2="43"/>
<line class="cls-1" x1="18" x2="21" y1="43" y2="43"/>
<line class="cls-1" x1="12" x2="15" y1="43" y2="43"/>
<line class="cls-1" x1="6" x2="9" y1="43" y2="43"/>
<line class="cls-1" x1="42" x2="45" y1="46" y2="46"/>
<line class="cls-1" x1="36" x2="39" y1="46" y2="46"/>
<line class="cls-1" x1="30" x2="33" y1="46" y2="46"/>
<line class="cls-1" x1="24" x2="27" y1="46" y2="46"/>
<line class="cls-1" x1="18" x2="21" y1="46" y2="46"/>
<line class="cls-1" x1="12" x2="15" y1="46" y2="46"/>
<line class="cls-1" x1="6" x2="9" y1="46" y2="46"/>
<rect class="cls-1" height="15" rx="4.9009" width="10" x="51" y="42"/>
<line class="cls-1" x1="56" x2="56" y1="47" y2="45"/>
<path class="cls-1" d="M26,39V37a3,3,0,0,1,3-3h0a3,3,0,0,0,3-3V26"/>
<path class="cls-1" d="M55.9009,42V37a3,3,0,0,0-3-3H41a3,3,0,0,1-3-3V26"/>
<polygon class="cls-1" points="44.929 20 24.929 20 22.929 8 46.929 8 44.929 20"/>
<circle class="cls-1" cx="41.9286" cy="22" r="2"/>
<circle class="cls-1" cx="27.9286" cy="22" r="2"/>
<polyline class="cls-1" points="18.929 4 21.929 4 22.929 8"/>
<line class="cls-1" x1="38.0301" x2="33.0301" y1="10.9699" y2="15.9699"/>
<circle cx="33.53" cy="11.47" r="1.1323"/>
<circle cx="37.53" cy="15.47" r="1.1323"/>
<line class="cls-1" x1="51.5509" x2="54.5509" y1="24.0547" y2="27.0547"/>
<line class="cls-1" x1="54.5509" x2="51.5509" y1="24.0547" y2="27.0547"/>
</g>
</svg>